<mxfile host="app.diagrams.net" agent="Mozilla/5.0 (Windows NT 10.0; Win64; x64) AppleWebKit/537.36 (KHTML, like Gecko) Chrome/130.0.0.0 YaBrowser/24.12.0.0 Safari/537.36" version="25.0.3">
  <diagram name="Страница — 1" id="lfoq3hU-ET1mjbVD_PWU">
    <mxGraphModel dx="6887" dy="4517" grid="1" gridSize="10" guides="1" tooltips="1" connect="1" arrows="1" fold="1" page="1" pageScale="1" pageWidth="4681" pageHeight="3300" math="0" shadow="0">
      <root>
        <mxCell id="0" />
        <mxCell id="1" parent="0" />
        <mxCell id="eWMClW8__IOZqlcNLexk-11" value="" style="group" vertex="1" connectable="0" parent="1">
          <mxGeometry x="-4640" y="-3280" width="2410" height="1490" as="geometry" />
        </mxCell>
        <mxCell id="eWMClW8__IOZqlcNLexk-1" value="" style="rounded=1;whiteSpace=wrap;html=1;fillColor=default;" vertex="1" parent="eWMClW8__IOZqlcNLexk-11">
          <mxGeometry x="70" y="15" width="2400" height="1490" as="geometry" />
        </mxCell>
        <mxCell id="eWMClW8__IOZqlcNLexk-2" value="&lt;font style=&quot;font-size: 40px;&quot;&gt;PaymentService&lt;/font&gt;" style="text;strokeColor=none;fillColor=none;html=1;fontSize=24;fontStyle=1;verticalAlign=middle;align=center;strokeWidth=1;" vertex="1" parent="eWMClW8__IOZqlcNLexk-11">
          <mxGeometry x="1033.3333333333333" y="12.217767369242793" width="272.72727272727275" height="70.95238095238095" as="geometry" />
        </mxCell>
        <mxCell id="eWMClW8__IOZqlcNLexk-19" value="" style="group" vertex="1" connectable="0" parent="eWMClW8__IOZqlcNLexk-11">
          <mxGeometry x="89.99757575757576" y="170" width="719.660606060606" height="794" as="geometry" />
        </mxCell>
        <mxCell id="eWMClW8__IOZqlcNLexk-4" value="" style="rounded=1;whiteSpace=wrap;html=1;" vertex="1" parent="eWMClW8__IOZqlcNLexk-19">
          <mxGeometry x="20" width="620" height="320" as="geometry" />
        </mxCell>
        <mxCell id="eWMClW8__IOZqlcNLexk-3" value="PaymentController" style="text;strokeColor=none;fillColor=none;html=1;fontSize=24;fontStyle=1;verticalAlign=middle;align=center;" vertex="1" parent="eWMClW8__IOZqlcNLexk-19">
          <mxGeometry x="244.76000000000002" y="9.62" width="230.15" height="40.38" as="geometry" />
        </mxCell>
        <mxCell id="eWMClW8__IOZqlcNLexk-28" value="" style="group" vertex="1" connectable="0" parent="eWMClW8__IOZqlcNLexk-11">
          <mxGeometry x="820" y="170" width="610" height="400" as="geometry" />
        </mxCell>
        <mxCell id="eWMClW8__IOZqlcNLexk-29" value="" style="rounded=1;whiteSpace=wrap;html=1;" vertex="1" parent="eWMClW8__IOZqlcNLexk-28">
          <mxGeometry x="16.952435491477463" width="525.5255002358014" height="316.83168316831683" as="geometry" />
        </mxCell>
        <mxCell id="eWMClW8__IOZqlcNLexk-30" value="PaymentService" style="text;strokeColor=none;fillColor=none;html=1;fontSize=24;fontStyle=1;verticalAlign=middle;align=center;" vertex="1" parent="eWMClW8__IOZqlcNLexk-28">
          <mxGeometry x="182.1793267158098" y="9.524752475247524" width="195.08015141817694" height="39.98019801980198" as="geometry" />
        </mxCell>
        <mxCell id="eWMClW8__IOZqlcNLexk-31" value="&lt;div&gt;&lt;div&gt;&lt;font style=&quot;font-size: 14px;&quot;&gt;&lt;br&gt;&lt;/font&gt;&lt;/div&gt;&lt;div&gt;&lt;font style=&quot;font-size: 14px;&quot;&gt;&lt;br&gt;&lt;/font&gt;&lt;/div&gt;&lt;div&gt;&lt;font style=&quot;font-size: 14px;&quot;&gt;&lt;br&gt;&lt;/font&gt;&lt;/div&gt;&lt;div&gt;&lt;font style=&quot;font-size: 14px;&quot;&gt;&lt;br&gt;&lt;/font&gt;&lt;/div&gt;&lt;div&gt;&lt;font style=&quot;font-size: 14px;&quot;&gt;@Async&lt;/font&gt;&lt;/div&gt;&lt;div&gt;&lt;font style=&quot;font-size: 14px;&quot;&gt;AuthorizationResponse authorizeP&lt;/font&gt;&lt;span style=&quot;font-size: 14px; background-color: initial;&quot;&gt;ayment&amp;nbsp;&lt;/span&gt;&lt;span style=&quot;font-size: 14px; background-color: initial;&quot;&gt;(AuthorizationMessage)&lt;/span&gt;&lt;/div&gt;&lt;/div&gt;&lt;div&gt;&lt;span style=&quot;font-size: 14px; background-color: initial;&quot;&gt;&lt;br&gt;&lt;/span&gt;&lt;/div&gt;&lt;div&gt;&lt;br&gt;&lt;/div&gt;&lt;div&gt;&lt;span style=&quot;font-size: 14px;&quot;&gt;@Async&lt;/span&gt;&lt;/div&gt;&lt;div&gt;&lt;font style=&quot;font-size: 14px;&quot;&gt;&lt;div style=&quot;font-size: 12px;&quot;&gt;&lt;div&gt;&lt;font style=&quot;font-size: 14px;&quot;&gt;ClearingResponse clearing&lt;/font&gt;&lt;font style=&quot;background-color: initial; font-size: 14px;&quot;&gt;P&lt;/font&gt;&lt;span style=&quot;background-color: initial; font-size: 14px;&quot;&gt;ayment&amp;nbsp;&lt;/span&gt;&lt;span style=&quot;font-size: 14px; background-color: initial;&quot;&gt;(ClearingMessage)&lt;/span&gt;&lt;/div&gt;&lt;div&gt;&lt;font style=&quot;font-size: 14px;&quot;&gt;&lt;br&gt;&lt;/font&gt;&lt;/div&gt;&lt;div&gt;&lt;font style=&quot;font-size: 14px;&quot;&gt;&lt;br&gt;&lt;/font&gt;&lt;/div&gt;&lt;div&gt;&lt;font style=&quot;font-size: 14px;&quot;&gt;@Async&lt;/font&gt;&lt;/div&gt;&lt;div&gt;&lt;span style=&quot;background-color: initial; font-size: 14px;&quot;&gt;boolean cancel&lt;/span&gt;&lt;font style=&quot;background-color: initial; font-size: 14px;&quot;&gt;P&lt;/font&gt;&lt;span style=&quot;background-color: initial; font-size: 14px;&quot;&gt;ayment&lt;/span&gt;&lt;span style=&quot;background-color: initial; font-size: 14px;&quot;&gt;&amp;nbsp;(CancelMessage)&lt;/span&gt;&lt;/div&gt;&lt;/div&gt;&lt;/font&gt;&lt;/div&gt;&lt;div&gt;&lt;font style=&quot;font-size: 14px;&quot;&gt;&lt;br&gt;&lt;/font&gt;&lt;/div&gt;" style="text;html=1;align=left;verticalAlign=middle;whiteSpace=wrap;rounded=0;" vertex="1" parent="eWMClW8__IOZqlcNLexk-28">
          <mxGeometry x="47.66" y="58.53" width="472.34" height="171.47" as="geometry" />
        </mxCell>
        <mxCell id="eWMClW8__IOZqlcNLexk-7" value="&lt;font style=&quot;font-size: 14px;&quot;&gt;@PostMapping(&quot;/payment-authorization&quot;)&lt;/font&gt;&lt;div&gt;&lt;div&gt;&lt;font style=&quot;font-size: 14px;&quot;&gt;AuthorizationResponse paymentAuthorization (AuthorizationMessage)&lt;/font&gt;&lt;/div&gt;&lt;/div&gt;&lt;div&gt;&lt;font style=&quot;font-size: 14px;&quot;&gt;&lt;br&gt;&lt;/font&gt;&lt;/div&gt;&lt;div&gt;&lt;font style=&quot;font-size: 14px;&quot;&gt;&lt;br&gt;&lt;/font&gt;&lt;/div&gt;&lt;div&gt;&lt;font style=&quot;font-size: 14px;&quot;&gt;@PostMapping(&quot;/payment-clearing&quot;)&lt;div style=&quot;font-size: 12px;&quot;&gt;&lt;div&gt;&lt;font style=&quot;font-size: 14px;&quot;&gt;&lt;span style=&quot;background-color: initial;&quot;&gt;ClearingResponse&amp;nbsp;&lt;/span&gt;paymentClearing (ClearingMessage)&lt;/font&gt;&lt;/div&gt;&lt;div&gt;&lt;font style=&quot;font-size: 14px;&quot;&gt;&lt;br&gt;&lt;/font&gt;&lt;/div&gt;&lt;div&gt;&lt;font style=&quot;font-size: 14px;&quot;&gt;&lt;br&gt;&lt;/font&gt;&lt;/div&gt;&lt;div&gt;&lt;font style=&quot;font-size: 14px;&quot;&gt;@PostMapping(&quot;/payment-cancel&quot;)&lt;div style=&quot;font-size: 12px;&quot;&gt;&lt;div&gt;&lt;font style=&quot;font-size: 14px;&quot;&gt;boolean paymentCancel (CancelMessage)&lt;/font&gt;&lt;/div&gt;&lt;/div&gt;&lt;/font&gt;&lt;/div&gt;&lt;/div&gt;&lt;/font&gt;&lt;/div&gt;&lt;div&gt;&lt;font style=&quot;font-size: 14px;&quot;&gt;&lt;br&gt;&lt;/font&gt;&lt;/div&gt;&lt;div&gt;&lt;font style=&quot;font-size: 14px;&quot;&gt;&lt;br&gt;&lt;/font&gt;&lt;/div&gt;" style="text;html=1;align=left;verticalAlign=middle;whiteSpace=wrap;rounded=0;" vertex="1" parent="eWMClW8__IOZqlcNLexk-11">
          <mxGeometry x="146.22757575757578" y="190" width="607.2" height="328" as="geometry" />
        </mxCell>
        <mxCell id="eWMClW8__IOZqlcNLexk-61" value="" style="group" vertex="1" connectable="0" parent="eWMClW8__IOZqlcNLexk-11">
          <mxGeometry x="110" y="520" width="420" height="180" as="geometry" />
        </mxCell>
        <mxCell id="eWMClW8__IOZqlcNLexk-55" value="" style="rounded=1;whiteSpace=wrap;html=1;" vertex="1" parent="eWMClW8__IOZqlcNLexk-61">
          <mxGeometry width="420" height="180" as="geometry" />
        </mxCell>
        <mxCell id="eWMClW8__IOZqlcNLexk-56" value="AuthorizationMessage" style="text;strokeColor=none;fillColor=none;html=1;fontSize=24;fontStyle=1;verticalAlign=middle;align=center;" vertex="1" parent="eWMClW8__IOZqlcNLexk-61">
          <mxGeometry x="158.83109997774687" y="30.00495049504957" width="102.33712861281414" height="7.996039603960397" as="geometry" />
        </mxCell>
        <mxCell id="eWMClW8__IOZqlcNLexk-53" value="&lt;div&gt;&lt;font style=&quot;font-size: 14px;&quot;&gt;long sender (accountID)&lt;/font&gt;&lt;/div&gt;&lt;div&gt;&lt;font style=&quot;font-size: 14px;&quot;&gt;long recipient (accountID)&lt;/font&gt;&lt;/div&gt;&lt;div&gt;&lt;font style=&quot;font-size: 14px;&quot;&gt;Currency currency&lt;/font&gt;&lt;/div&gt;&lt;div&gt;&lt;span style=&quot;font-size: 14px;&quot;&gt;BigDecimal amount&lt;/span&gt;&lt;/div&gt;&lt;div&gt;&lt;span style=&quot;font-size: 14px;&quot;&gt;LocalDateTime&amp;nbsp;&lt;/span&gt;&lt;span style=&quot;background-color: initial;&quot;&gt;clear_shceduled_at (LocalDateTime.now + 5 min)&lt;/span&gt;&lt;/div&gt;" style="text;html=1;align=left;verticalAlign=middle;whiteSpace=wrap;rounded=0;" vertex="1" parent="eWMClW8__IOZqlcNLexk-61">
          <mxGeometry x="20" y="50" width="400" height="110" as="geometry" />
        </mxCell>
        <mxCell id="eWMClW8__IOZqlcNLexk-62" value="" style="group" vertex="1" connectable="0" parent="eWMClW8__IOZqlcNLexk-11">
          <mxGeometry x="600" y="518" width="480" height="180" as="geometry" />
        </mxCell>
        <mxCell id="eWMClW8__IOZqlcNLexk-63" value="" style="rounded=1;whiteSpace=wrap;html=1;" vertex="1" parent="eWMClW8__IOZqlcNLexk-62">
          <mxGeometry width="420" height="180" as="geometry" />
        </mxCell>
        <mxCell id="eWMClW8__IOZqlcNLexk-64" value="AuthorizationResponse" style="text;strokeColor=none;fillColor=none;html=1;fontSize=24;fontStyle=1;verticalAlign=middle;align=center;" vertex="1" parent="eWMClW8__IOZqlcNLexk-62">
          <mxGeometry x="15" y="12" width="410" height="28" as="geometry" />
        </mxCell>
        <mxCell id="eWMClW8__IOZqlcNLexk-65" value="&lt;div&gt;&lt;span style=&quot;font-size: 14px;&quot;&gt;long requestID&lt;/span&gt;&lt;/div&gt;&lt;div&gt;&lt;span style=&quot;font-size: 14px;&quot;&gt;int verificationCode&lt;/span&gt;&lt;/div&gt;" style="text;html=1;align=left;verticalAlign=middle;whiteSpace=wrap;rounded=0;" vertex="1" parent="eWMClW8__IOZqlcNLexk-62">
          <mxGeometry x="20" y="50" width="400" height="110" as="geometry" />
        </mxCell>
        <mxCell id="eWMClW8__IOZqlcNLexk-219" value="" style="group" vertex="1" connectable="0" parent="eWMClW8__IOZqlcNLexk-11">
          <mxGeometry x="1440" y="170" width="610" height="400" as="geometry" />
        </mxCell>
        <mxCell id="eWMClW8__IOZqlcNLexk-220" value="" style="rounded=1;whiteSpace=wrap;html=1;" vertex="1" parent="eWMClW8__IOZqlcNLexk-219">
          <mxGeometry x="16.95" width="303.05" height="316.83" as="geometry" />
        </mxCell>
        <mxCell id="eWMClW8__IOZqlcNLexk-221" value="RequestRepository" style="text;strokeColor=none;fillColor=none;html=1;fontSize=24;fontStyle=1;verticalAlign=middle;align=center;" vertex="1" parent="eWMClW8__IOZqlcNLexk-219">
          <mxGeometry x="44.92" y="10" width="267.82" height="39.98" as="geometry" />
        </mxCell>
        <mxCell id="eWMClW8__IOZqlcNLexk-222" value="&lt;div&gt;&lt;div&gt;&lt;br&gt;&lt;/div&gt;&lt;div&gt;&lt;font style=&quot;font-size: 14px;&quot;&gt;&lt;br&gt;&lt;/font&gt;&lt;/div&gt;&lt;div&gt;&lt;font style=&quot;font-size: 14px;&quot;&gt;&lt;br&gt;&lt;/font&gt;&lt;/div&gt;&lt;div&gt;&lt;br&gt;&lt;/div&gt;&lt;div&gt;&lt;span style=&quot;font-size: 14px;&quot;&gt;List&amp;lt;Request&amp;gt; getPendingRequests();&lt;/span&gt;&lt;/div&gt;&lt;/div&gt;&lt;div&gt;&lt;span style=&quot;font-size: 14px;&quot;&gt;&lt;br&gt;&lt;/span&gt;&lt;/div&gt;&lt;div&gt;&lt;span style=&quot;font-size: 14px;&quot;&gt;void setSuccessStatusById(Long requestID);&lt;/span&gt;&lt;/div&gt;&lt;div&gt;&lt;font style=&quot;font-size: 14px;&quot;&gt;&lt;br&gt;&lt;/font&gt;&lt;/div&gt;&lt;div&gt;&lt;font style=&quot;font-size: 14px;&quot;&gt;void setCancelStatusById(Long requestID);&lt;/font&gt;&lt;/div&gt;&lt;div&gt;&lt;font style=&quot;font-size: 14px;&quot;&gt;&lt;br&gt;&lt;/font&gt;&lt;/div&gt;" style="text;html=1;align=left;verticalAlign=middle;whiteSpace=wrap;rounded=0;" vertex="1" parent="eWMClW8__IOZqlcNLexk-219">
          <mxGeometry x="27.66" y="40" width="302.34" height="160" as="geometry" />
        </mxCell>
        <mxCell id="eWMClW8__IOZqlcNLexk-223" value="" style="group" vertex="1" connectable="0" parent="eWMClW8__IOZqlcNLexk-11">
          <mxGeometry x="110" y="740" width="480" height="180" as="geometry" />
        </mxCell>
        <mxCell id="eWMClW8__IOZqlcNLexk-224" value="" style="rounded=1;whiteSpace=wrap;html=1;" vertex="1" parent="eWMClW8__IOZqlcNLexk-223">
          <mxGeometry width="420" height="180" as="geometry" />
        </mxCell>
        <mxCell id="eWMClW8__IOZqlcNLexk-225" value="ClearingMessage/CancelMessage" style="text;strokeColor=none;fillColor=none;html=1;fontSize=24;fontStyle=1;verticalAlign=middle;align=center;" vertex="1" parent="eWMClW8__IOZqlcNLexk-223">
          <mxGeometry x="17.210000000000008" y="10" width="385.58" height="30" as="geometry" />
        </mxCell>
        <mxCell id="eWMClW8__IOZqlcNLexk-226" value="&lt;div&gt;&lt;span style=&quot;font-size: 14px;&quot;&gt;long requestID&lt;/span&gt;&lt;/div&gt;&lt;div&gt;&lt;span style=&quot;font-size: 14px;&quot;&gt;int verificationCode&lt;/span&gt;&lt;/div&gt;" style="text;html=1;align=left;verticalAlign=middle;whiteSpace=wrap;rounded=0;" vertex="1" parent="eWMClW8__IOZqlcNLexk-223">
          <mxGeometry x="20" y="50" width="290" height="70" as="geometry" />
        </mxCell>
        <mxCell id="eWMClW8__IOZqlcNLexk-232" value="" style="group" vertex="1" connectable="0" parent="eWMClW8__IOZqlcNLexk-11">
          <mxGeometry x="600" y="740" width="420" height="180" as="geometry" />
        </mxCell>
        <mxCell id="eWMClW8__IOZqlcNLexk-233" value="" style="rounded=1;whiteSpace=wrap;html=1;" vertex="1" parent="eWMClW8__IOZqlcNLexk-232">
          <mxGeometry width="420" height="180" as="geometry" />
        </mxCell>
        <mxCell id="eWMClW8__IOZqlcNLexk-234" value="ClearingResponse" style="text;strokeColor=none;fillColor=none;html=1;fontSize=24;fontStyle=1;verticalAlign=middle;align=center;" vertex="1" parent="eWMClW8__IOZqlcNLexk-232">
          <mxGeometry x="94.42000000000002" y="10" width="231.17" height="30" as="geometry" />
        </mxCell>
        <mxCell id="eWMClW8__IOZqlcNLexk-235" value="&lt;div&gt;&lt;span style=&quot;font-size: 14px;&quot;&gt;long balanceAuditID&lt;/span&gt;&lt;/div&gt;" style="text;html=1;align=left;verticalAlign=middle;whiteSpace=wrap;rounded=0;" vertex="1" parent="eWMClW8__IOZqlcNLexk-232">
          <mxGeometry x="20" y="50" width="290" height="70" as="geometry" />
        </mxCell>
        <mxCell id="eWMClW8__IOZqlcNLexk-271" value="" style="group" vertex="1" connectable="0" parent="eWMClW8__IOZqlcNLexk-11">
          <mxGeometry x="1535" y="480" width="420" height="180" as="geometry" />
        </mxCell>
        <mxCell id="eWMClW8__IOZqlcNLexk-272" value="" style="rounded=1;whiteSpace=wrap;html=1;" vertex="1" parent="eWMClW8__IOZqlcNLexk-271">
          <mxGeometry x="10" y="40" width="410" height="100" as="geometry" />
        </mxCell>
        <mxCell id="eWMClW8__IOZqlcNLexk-273" value="AuthorizationEventPublisher" style="text;strokeColor=none;fillColor=none;html=1;fontSize=24;fontStyle=1;verticalAlign=middle;align=center;" vertex="1" parent="eWMClW8__IOZqlcNLexk-271">
          <mxGeometry x="158.83109997774687" y="86.00495049504957" width="102.33712861281414" height="7.996039603960397" as="geometry" />
        </mxCell>
        <mxCell id="eWMClW8__IOZqlcNLexk-275" value="" style="group" vertex="1" connectable="0" parent="eWMClW8__IOZqlcNLexk-11">
          <mxGeometry x="1800" y="170" width="610" height="400" as="geometry" />
        </mxCell>
        <mxCell id="eWMClW8__IOZqlcNLexk-276" value="" style="rounded=1;whiteSpace=wrap;html=1;" vertex="1" parent="eWMClW8__IOZqlcNLexk-275">
          <mxGeometry x="16.95" width="303.05" height="316.83" as="geometry" />
        </mxCell>
        <mxCell id="eWMClW8__IOZqlcNLexk-277" value="BalanceAuditRepository" style="text;strokeColor=none;fillColor=none;html=1;fontSize=24;fontStyle=1;verticalAlign=middle;align=center;" vertex="1" parent="eWMClW8__IOZqlcNLexk-275">
          <mxGeometry x="34.56" y="10" width="267.82" height="39.98" as="geometry" />
        </mxCell>
        <mxCell id="eWMClW8__IOZqlcNLexk-279" value="" style="edgeStyle=elbowEdgeStyle;elbow=horizontal;endArrow=classic;html=1;curved=0;rounded=0;endSize=8;startSize=8;exitX=1;exitY=0.25;exitDx=0;exitDy=0;entryX=0;entryY=0.5;entryDx=0;entryDy=0;" edge="1" parent="eWMClW8__IOZqlcNLexk-11" source="eWMClW8__IOZqlcNLexk-31" target="eWMClW8__IOZqlcNLexk-272">
          <mxGeometry width="50" height="50" relative="1" as="geometry">
            <mxPoint x="1420" y="560" as="sourcePoint" />
            <mxPoint x="1470" y="510" as="targetPoint" />
          </mxGeometry>
        </mxCell>
        <mxCell id="eWMClW8__IOZqlcNLexk-281" value="" style="group" vertex="1" connectable="0" parent="eWMClW8__IOZqlcNLexk-11">
          <mxGeometry x="1490" y="600" width="420" height="180" as="geometry" />
        </mxCell>
        <mxCell id="eWMClW8__IOZqlcNLexk-282" value="" style="rounded=1;whiteSpace=wrap;html=1;" vertex="1" parent="eWMClW8__IOZqlcNLexk-281">
          <mxGeometry x="10" y="40" width="410" height="100" as="geometry" />
        </mxCell>
        <mxCell id="eWMClW8__IOZqlcNLexk-283" value="ClearingEventPublisher" style="text;strokeColor=none;fillColor=none;html=1;fontSize=24;fontStyle=1;verticalAlign=middle;align=center;" vertex="1" parent="eWMClW8__IOZqlcNLexk-281">
          <mxGeometry x="158.83109997774687" y="86.00495049504957" width="102.33712861281414" height="7.996039603960397" as="geometry" />
        </mxCell>
        <mxCell id="eWMClW8__IOZqlcNLexk-284" value="" style="edgeStyle=elbowEdgeStyle;elbow=horizontal;endArrow=classic;html=1;curved=0;rounded=0;endSize=8;startSize=8;entryX=0;entryY=0.5;entryDx=0;entryDy=0;exitX=0.997;exitY=0.648;exitDx=0;exitDy=0;exitPerimeter=0;" edge="1" parent="eWMClW8__IOZqlcNLexk-11" source="eWMClW8__IOZqlcNLexk-31" target="eWMClW8__IOZqlcNLexk-282">
          <mxGeometry width="50" height="50" relative="1" as="geometry">
            <mxPoint x="1256.06" y="680" as="sourcePoint" />
            <mxPoint x="1306.06" y="630" as="targetPoint" />
          </mxGeometry>
        </mxCell>
        <mxCell id="eWMClW8__IOZqlcNLexk-456" value="" style="group" vertex="1" connectable="0" parent="eWMClW8__IOZqlcNLexk-11">
          <mxGeometry x="1430" y="730" width="420" height="180" as="geometry" />
        </mxCell>
        <mxCell id="eWMClW8__IOZqlcNLexk-457" value="" style="rounded=1;whiteSpace=wrap;html=1;" vertex="1" parent="eWMClW8__IOZqlcNLexk-456">
          <mxGeometry x="10" y="40" width="410" height="100" as="geometry" />
        </mxCell>
        <mxCell id="eWMClW8__IOZqlcNLexk-458" value="CancelEventPublisher" style="text;strokeColor=none;fillColor=none;html=1;fontSize=24;fontStyle=1;verticalAlign=middle;align=center;" vertex="1" parent="eWMClW8__IOZqlcNLexk-456">
          <mxGeometry x="158.83109997774687" y="86.00495049504957" width="102.33712861281414" height="7.996039603960397" as="geometry" />
        </mxCell>
        <mxCell id="eWMClW8__IOZqlcNLexk-459" value="" style="edgeStyle=elbowEdgeStyle;elbow=horizontal;endArrow=classic;html=1;curved=0;rounded=0;endSize=8;startSize=8;exitX=1;exitY=0.75;exitDx=0;exitDy=0;entryX=0;entryY=0.5;entryDx=0;entryDy=0;" edge="1" parent="eWMClW8__IOZqlcNLexk-11" source="eWMClW8__IOZqlcNLexk-29" target="eWMClW8__IOZqlcNLexk-457">
          <mxGeometry width="50" height="50" relative="1" as="geometry">
            <mxPoint x="1770" y="860" as="sourcePoint" />
            <mxPoint x="1820" y="810" as="targetPoint" />
          </mxGeometry>
        </mxCell>
        <mxCell id="eWMClW8__IOZqlcNLexk-191" value="Request" style="shape=table;startSize=30;container=1;collapsible=0;childLayout=tableLayout;fixedRows=1;rowLines=0;fontStyle=0;strokeColor=default;fontSize=16;" vertex="1" parent="1">
          <mxGeometry x="-4110" y="-1480" width="230" height="300" as="geometry" />
        </mxCell>
        <mxCell id="eWMClW8__IOZqlcNLexk-192" value="" style="shape=tableRow;horizontal=0;startSize=0;swimlaneHead=0;swimlaneBody=0;top=0;left=0;bottom=0;right=0;collapsible=0;dropTarget=0;fillColor=none;points=[[0,0.5],[1,0.5]];portConstraint=eastwest;strokeColor=inherit;fontSize=16;" vertex="1" parent="eWMClW8__IOZqlcNLexk-191">
          <mxGeometry y="30" width="230" height="30" as="geometry" />
        </mxCell>
        <mxCell id="eWMClW8__IOZqlcNLexk-193" value="1" style="shape=partialRectangle;html=1;whiteSpace=wrap;connectable=0;fillColor=none;top=0;left=0;bottom=0;right=0;overflow=hidden;pointerEvents=1;strokeColor=inherit;fontSize=16;" vertex="1" parent="eWMClW8__IOZqlcNLexk-192">
          <mxGeometry width="51" height="30" as="geometry">
            <mxRectangle width="51" height="30" as="alternateBounds" />
          </mxGeometry>
        </mxCell>
        <mxCell id="eWMClW8__IOZqlcNLexk-194" value="Id" style="shape=partialRectangle;html=1;whiteSpace=wrap;connectable=0;fillColor=none;top=0;left=0;bottom=0;right=0;align=left;spacingLeft=6;overflow=hidden;strokeColor=inherit;fontSize=16;" vertex="1" parent="eWMClW8__IOZqlcNLexk-192">
          <mxGeometry x="51" width="179" height="30" as="geometry">
            <mxRectangle width="179" height="30" as="alternateBounds" />
          </mxGeometry>
        </mxCell>
        <mxCell id="eWMClW8__IOZqlcNLexk-195" value="" style="shape=tableRow;horizontal=0;startSize=0;swimlaneHead=0;swimlaneBody=0;top=0;left=0;bottom=0;right=0;collapsible=0;dropTarget=0;fillColor=none;points=[[0,0.5],[1,0.5]];portConstraint=eastwest;strokeColor=inherit;fontSize=16;" vertex="1" parent="eWMClW8__IOZqlcNLexk-191">
          <mxGeometry y="60" width="230" height="30" as="geometry" />
        </mxCell>
        <mxCell id="eWMClW8__IOZqlcNLexk-196" value="2" style="shape=partialRectangle;html=1;whiteSpace=wrap;connectable=0;fillColor=none;top=0;left=0;bottom=0;right=0;overflow=hidden;strokeColor=inherit;fontSize=16;" vertex="1" parent="eWMClW8__IOZqlcNLexk-195">
          <mxGeometry width="51" height="30" as="geometry">
            <mxRectangle width="51" height="30" as="alternateBounds" />
          </mxGeometry>
        </mxCell>
        <mxCell id="eWMClW8__IOZqlcNLexk-197" value="sender_id" style="shape=partialRectangle;html=1;whiteSpace=wrap;connectable=0;fillColor=none;top=0;left=0;bottom=0;right=0;align=left;spacingLeft=6;overflow=hidden;strokeColor=inherit;fontSize=16;" vertex="1" parent="eWMClW8__IOZqlcNLexk-195">
          <mxGeometry x="51" width="179" height="30" as="geometry">
            <mxRectangle width="179" height="30" as="alternateBounds" />
          </mxGeometry>
        </mxCell>
        <mxCell id="eWMClW8__IOZqlcNLexk-198" value="" style="shape=tableRow;horizontal=0;startSize=0;swimlaneHead=0;swimlaneBody=0;top=0;left=0;bottom=0;right=0;collapsible=0;dropTarget=0;fillColor=none;points=[[0,0.5],[1,0.5]];portConstraint=eastwest;strokeColor=inherit;fontSize=16;" vertex="1" parent="eWMClW8__IOZqlcNLexk-191">
          <mxGeometry y="90" width="230" height="30" as="geometry" />
        </mxCell>
        <mxCell id="eWMClW8__IOZqlcNLexk-199" value="3" style="shape=partialRectangle;html=1;whiteSpace=wrap;connectable=0;fillColor=none;top=0;left=0;bottom=0;right=0;overflow=hidden;strokeColor=inherit;fontSize=16;" vertex="1" parent="eWMClW8__IOZqlcNLexk-198">
          <mxGeometry width="51" height="30" as="geometry">
            <mxRectangle width="51" height="30" as="alternateBounds" />
          </mxGeometry>
        </mxCell>
        <mxCell id="eWMClW8__IOZqlcNLexk-200" value="recipient_id" style="shape=partialRectangle;html=1;whiteSpace=wrap;connectable=0;fillColor=none;top=0;left=0;bottom=0;right=0;align=left;spacingLeft=6;overflow=hidden;strokeColor=inherit;fontSize=16;" vertex="1" parent="eWMClW8__IOZqlcNLexk-198">
          <mxGeometry x="51" width="179" height="30" as="geometry">
            <mxRectangle width="179" height="30" as="alternateBounds" />
          </mxGeometry>
        </mxCell>
        <mxCell id="eWMClW8__IOZqlcNLexk-204" value="" style="shape=tableRow;horizontal=0;startSize=0;swimlaneHead=0;swimlaneBody=0;top=0;left=0;bottom=0;right=0;collapsible=0;dropTarget=0;fillColor=none;points=[[0,0.5],[1,0.5]];portConstraint=eastwest;strokeColor=inherit;fontSize=16;" vertex="1" parent="eWMClW8__IOZqlcNLexk-191">
          <mxGeometry y="120" width="230" height="30" as="geometry" />
        </mxCell>
        <mxCell id="eWMClW8__IOZqlcNLexk-205" value="4" style="shape=partialRectangle;html=1;whiteSpace=wrap;connectable=0;fillColor=none;top=0;left=0;bottom=0;right=0;overflow=hidden;strokeColor=inherit;fontSize=16;" vertex="1" parent="eWMClW8__IOZqlcNLexk-204">
          <mxGeometry width="51" height="30" as="geometry">
            <mxRectangle width="51" height="30" as="alternateBounds" />
          </mxGeometry>
        </mxCell>
        <mxCell id="eWMClW8__IOZqlcNLexk-206" value="current" style="shape=partialRectangle;html=1;whiteSpace=wrap;connectable=0;fillColor=none;top=0;left=0;bottom=0;right=0;align=left;spacingLeft=6;overflow=hidden;strokeColor=inherit;fontSize=16;" vertex="1" parent="eWMClW8__IOZqlcNLexk-204">
          <mxGeometry x="51" width="179" height="30" as="geometry">
            <mxRectangle width="179" height="30" as="alternateBounds" />
          </mxGeometry>
        </mxCell>
        <mxCell id="eWMClW8__IOZqlcNLexk-207" value="" style="shape=tableRow;horizontal=0;startSize=0;swimlaneHead=0;swimlaneBody=0;top=0;left=0;bottom=0;right=0;collapsible=0;dropTarget=0;fillColor=none;points=[[0,0.5],[1,0.5]];portConstraint=eastwest;strokeColor=inherit;fontSize=16;" vertex="1" parent="eWMClW8__IOZqlcNLexk-191">
          <mxGeometry y="150" width="230" height="30" as="geometry" />
        </mxCell>
        <mxCell id="eWMClW8__IOZqlcNLexk-208" value="5" style="shape=partialRectangle;html=1;whiteSpace=wrap;connectable=0;fillColor=none;top=0;left=0;bottom=0;right=0;overflow=hidden;strokeColor=inherit;fontSize=16;" vertex="1" parent="eWMClW8__IOZqlcNLexk-207">
          <mxGeometry width="51" height="30" as="geometry">
            <mxRectangle width="51" height="30" as="alternateBounds" />
          </mxGeometry>
        </mxCell>
        <mxCell id="eWMClW8__IOZqlcNLexk-209" value="amount" style="shape=partialRectangle;html=1;whiteSpace=wrap;connectable=0;fillColor=none;top=0;left=0;bottom=0;right=0;align=left;spacingLeft=6;overflow=hidden;strokeColor=inherit;fontSize=16;" vertex="1" parent="eWMClW8__IOZqlcNLexk-207">
          <mxGeometry x="51" width="179" height="30" as="geometry">
            <mxRectangle width="179" height="30" as="alternateBounds" />
          </mxGeometry>
        </mxCell>
        <mxCell id="eWMClW8__IOZqlcNLexk-210" value="" style="shape=tableRow;horizontal=0;startSize=0;swimlaneHead=0;swimlaneBody=0;top=0;left=0;bottom=0;right=0;collapsible=0;dropTarget=0;fillColor=none;points=[[0,0.5],[1,0.5]];portConstraint=eastwest;strokeColor=inherit;fontSize=16;" vertex="1" parent="eWMClW8__IOZqlcNLexk-191">
          <mxGeometry y="180" width="230" height="30" as="geometry" />
        </mxCell>
        <mxCell id="eWMClW8__IOZqlcNLexk-211" value="6" style="shape=partialRectangle;html=1;whiteSpace=wrap;connectable=0;fillColor=none;top=0;left=0;bottom=0;right=0;overflow=hidden;strokeColor=inherit;fontSize=16;" vertex="1" parent="eWMClW8__IOZqlcNLexk-210">
          <mxGeometry width="51" height="30" as="geometry">
            <mxRectangle width="51" height="30" as="alternateBounds" />
          </mxGeometry>
        </mxCell>
        <mxCell id="eWMClW8__IOZqlcNLexk-212" value="clear_shceduled_at" style="shape=partialRectangle;html=1;whiteSpace=wrap;connectable=0;fillColor=none;top=0;left=0;bottom=0;right=0;align=left;spacingLeft=6;overflow=hidden;strokeColor=inherit;fontSize=16;" vertex="1" parent="eWMClW8__IOZqlcNLexk-210">
          <mxGeometry x="51" width="179" height="30" as="geometry">
            <mxRectangle width="179" height="30" as="alternateBounds" />
          </mxGeometry>
        </mxCell>
        <mxCell id="eWMClW8__IOZqlcNLexk-213" value="" style="shape=tableRow;horizontal=0;startSize=0;swimlaneHead=0;swimlaneBody=0;top=0;left=0;bottom=0;right=0;collapsible=0;dropTarget=0;fillColor=none;points=[[0,0.5],[1,0.5]];portConstraint=eastwest;strokeColor=inherit;fontSize=16;" vertex="1" parent="eWMClW8__IOZqlcNLexk-191">
          <mxGeometry y="210" width="230" height="30" as="geometry" />
        </mxCell>
        <mxCell id="eWMClW8__IOZqlcNLexk-214" value="7" style="shape=partialRectangle;html=1;whiteSpace=wrap;connectable=0;fillColor=none;top=0;left=0;bottom=0;right=0;overflow=hidden;strokeColor=inherit;fontSize=16;" vertex="1" parent="eWMClW8__IOZqlcNLexk-213">
          <mxGeometry width="51" height="30" as="geometry">
            <mxRectangle width="51" height="30" as="alternateBounds" />
          </mxGeometry>
        </mxCell>
        <mxCell id="eWMClW8__IOZqlcNLexk-215" value="status (create index)" style="shape=partialRectangle;html=1;whiteSpace=wrap;connectable=0;fillColor=none;top=0;left=0;bottom=0;right=0;align=left;spacingLeft=6;overflow=hidden;strokeColor=inherit;fontSize=16;" vertex="1" parent="eWMClW8__IOZqlcNLexk-213">
          <mxGeometry x="51" width="179" height="30" as="geometry">
            <mxRectangle width="179" height="30" as="alternateBounds" />
          </mxGeometry>
        </mxCell>
        <mxCell id="eWMClW8__IOZqlcNLexk-216" value="" style="shape=tableRow;horizontal=0;startSize=0;swimlaneHead=0;swimlaneBody=0;top=0;left=0;bottom=0;right=0;collapsible=0;dropTarget=0;fillColor=none;points=[[0,0.5],[1,0.5]];portConstraint=eastwest;strokeColor=inherit;fontSize=16;" vertex="1" parent="eWMClW8__IOZqlcNLexk-191">
          <mxGeometry y="240" width="230" height="30" as="geometry" />
        </mxCell>
        <mxCell id="eWMClW8__IOZqlcNLexk-217" value="8" style="shape=partialRectangle;html=1;whiteSpace=wrap;connectable=0;fillColor=none;top=0;left=0;bottom=0;right=0;overflow=hidden;strokeColor=inherit;fontSize=16;" vertex="1" parent="eWMClW8__IOZqlcNLexk-216">
          <mxGeometry width="51" height="30" as="geometry">
            <mxRectangle width="51" height="30" as="alternateBounds" />
          </mxGeometry>
        </mxCell>
        <mxCell id="eWMClW8__IOZqlcNLexk-218" value="verification_code" style="shape=partialRectangle;html=1;whiteSpace=wrap;connectable=0;fillColor=none;top=0;left=0;bottom=0;right=0;align=left;spacingLeft=6;overflow=hidden;strokeColor=inherit;fontSize=16;" vertex="1" parent="eWMClW8__IOZqlcNLexk-216">
          <mxGeometry x="51" width="179" height="30" as="geometry">
            <mxRectangle width="179" height="30" as="alternateBounds" />
          </mxGeometry>
        </mxCell>
        <mxCell id="eWMClW8__IOZqlcNLexk-239" value="" style="shape=tableRow;horizontal=0;startSize=0;swimlaneHead=0;swimlaneBody=0;top=0;left=0;bottom=0;right=0;collapsible=0;dropTarget=0;fillColor=none;points=[[0,0.5],[1,0.5]];portConstraint=eastwest;strokeColor=inherit;fontSize=16;" vertex="1" parent="eWMClW8__IOZqlcNLexk-191">
          <mxGeometry y="270" width="230" height="30" as="geometry" />
        </mxCell>
        <mxCell id="eWMClW8__IOZqlcNLexk-240" value="9" style="shape=partialRectangle;html=1;whiteSpace=wrap;connectable=0;fillColor=none;top=0;left=0;bottom=0;right=0;overflow=hidden;strokeColor=inherit;fontSize=16;" vertex="1" parent="eWMClW8__IOZqlcNLexk-239">
          <mxGeometry width="51" height="30" as="geometry">
            <mxRectangle width="51" height="30" as="alternateBounds" />
          </mxGeometry>
        </mxCell>
        <mxCell id="eWMClW8__IOZqlcNLexk-241" value="created_at" style="shape=partialRectangle;html=1;whiteSpace=wrap;connectable=0;fillColor=none;top=0;left=0;bottom=0;right=0;align=left;spacingLeft=6;overflow=hidden;strokeColor=inherit;fontSize=16;" vertex="1" parent="eWMClW8__IOZqlcNLexk-239">
          <mxGeometry x="51" width="179" height="30" as="geometry">
            <mxRectangle width="179" height="30" as="alternateBounds" />
          </mxGeometry>
        </mxCell>
        <mxCell id="eWMClW8__IOZqlcNLexk-242" value="Balance_Audit" style="shape=table;startSize=30;container=1;collapsible=0;childLayout=tableLayout;fixedRows=1;rowLines=0;fontStyle=0;strokeColor=default;fontSize=16;" vertex="1" parent="1">
          <mxGeometry x="-3680" y="-1480" width="230" height="120" as="geometry" />
        </mxCell>
        <mxCell id="eWMClW8__IOZqlcNLexk-243" value="" style="shape=tableRow;horizontal=0;startSize=0;swimlaneHead=0;swimlaneBody=0;top=0;left=0;bottom=0;right=0;collapsible=0;dropTarget=0;fillColor=none;points=[[0,0.5],[1,0.5]];portConstraint=eastwest;strokeColor=inherit;fontSize=16;" vertex="1" parent="eWMClW8__IOZqlcNLexk-242">
          <mxGeometry y="30" width="230" height="30" as="geometry" />
        </mxCell>
        <mxCell id="eWMClW8__IOZqlcNLexk-244" value="1" style="shape=partialRectangle;html=1;whiteSpace=wrap;connectable=0;fillColor=none;top=0;left=0;bottom=0;right=0;overflow=hidden;pointerEvents=1;strokeColor=inherit;fontSize=16;" vertex="1" parent="eWMClW8__IOZqlcNLexk-243">
          <mxGeometry width="51" height="30" as="geometry">
            <mxRectangle width="51" height="30" as="alternateBounds" />
          </mxGeometry>
        </mxCell>
        <mxCell id="eWMClW8__IOZqlcNLexk-245" value="Id" style="shape=partialRectangle;html=1;whiteSpace=wrap;connectable=0;fillColor=none;top=0;left=0;bottom=0;right=0;align=left;spacingLeft=6;overflow=hidden;strokeColor=inherit;fontSize=16;" vertex="1" parent="eWMClW8__IOZqlcNLexk-243">
          <mxGeometry x="51" width="179" height="30" as="geometry">
            <mxRectangle width="179" height="30" as="alternateBounds" />
          </mxGeometry>
        </mxCell>
        <mxCell id="eWMClW8__IOZqlcNLexk-246" value="" style="shape=tableRow;horizontal=0;startSize=0;swimlaneHead=0;swimlaneBody=0;top=0;left=0;bottom=0;right=0;collapsible=0;dropTarget=0;fillColor=none;points=[[0,0.5],[1,0.5]];portConstraint=eastwest;strokeColor=inherit;fontSize=16;" vertex="1" parent="eWMClW8__IOZqlcNLexk-242">
          <mxGeometry y="60" width="230" height="30" as="geometry" />
        </mxCell>
        <mxCell id="eWMClW8__IOZqlcNLexk-247" value="2" style="shape=partialRectangle;html=1;whiteSpace=wrap;connectable=0;fillColor=none;top=0;left=0;bottom=0;right=0;overflow=hidden;strokeColor=inherit;fontSize=16;" vertex="1" parent="eWMClW8__IOZqlcNLexk-246">
          <mxGeometry width="51" height="30" as="geometry">
            <mxRectangle width="51" height="30" as="alternateBounds" />
          </mxGeometry>
        </mxCell>
        <mxCell id="eWMClW8__IOZqlcNLexk-248" value="request_id" style="shape=partialRectangle;html=1;whiteSpace=wrap;connectable=0;fillColor=none;top=0;left=0;bottom=0;right=0;align=left;spacingLeft=6;overflow=hidden;strokeColor=inherit;fontSize=16;" vertex="1" parent="eWMClW8__IOZqlcNLexk-246">
          <mxGeometry x="51" width="179" height="30" as="geometry">
            <mxRectangle width="179" height="30" as="alternateBounds" />
          </mxGeometry>
        </mxCell>
        <mxCell id="eWMClW8__IOZqlcNLexk-249" value="" style="shape=tableRow;horizontal=0;startSize=0;swimlaneHead=0;swimlaneBody=0;top=0;left=0;bottom=0;right=0;collapsible=0;dropTarget=0;fillColor=none;points=[[0,0.5],[1,0.5]];portConstraint=eastwest;strokeColor=inherit;fontSize=16;" vertex="1" parent="eWMClW8__IOZqlcNLexk-242">
          <mxGeometry y="90" width="230" height="30" as="geometry" />
        </mxCell>
        <mxCell id="eWMClW8__IOZqlcNLexk-250" value="3" style="shape=partialRectangle;html=1;whiteSpace=wrap;connectable=0;fillColor=none;top=0;left=0;bottom=0;right=0;overflow=hidden;strokeColor=inherit;fontSize=16;" vertex="1" parent="eWMClW8__IOZqlcNLexk-249">
          <mxGeometry width="51" height="30" as="geometry">
            <mxRectangle width="51" height="30" as="alternateBounds" />
          </mxGeometry>
        </mxCell>
        <mxCell id="eWMClW8__IOZqlcNLexk-251" value="balance_id" style="shape=partialRectangle;html=1;whiteSpace=wrap;connectable=0;fillColor=none;top=0;left=0;bottom=0;right=0;align=left;spacingLeft=6;overflow=hidden;strokeColor=inherit;fontSize=16;" vertex="1" parent="eWMClW8__IOZqlcNLexk-249">
          <mxGeometry x="51" width="179" height="30" as="geometry">
            <mxRectangle width="179" height="30" as="alternateBounds" />
          </mxGeometry>
        </mxCell>
        <mxCell id="eWMClW8__IOZqlcNLexk-270" value="" style="edgeStyle=elbowEdgeStyle;elbow=horizontal;endArrow=classic;html=1;curved=0;rounded=0;endSize=8;startSize=8;exitX=0;exitY=0.5;exitDx=0;exitDy=0;entryX=1;entryY=0.5;entryDx=0;entryDy=0;" edge="1" parent="1" source="eWMClW8__IOZqlcNLexk-246" target="eWMClW8__IOZqlcNLexk-192">
          <mxGeometry width="50" height="50" relative="1" as="geometry">
            <mxPoint x="-3850" y="-1680" as="sourcePoint" />
            <mxPoint x="-3690" y="-1530" as="targetPoint" />
          </mxGeometry>
        </mxCell>
        <mxCell id="eWMClW8__IOZqlcNLexk-285" value="s" style="group" vertex="1" connectable="0" parent="1">
          <mxGeometry x="-2060" y="-3280" width="2410" height="1490" as="geometry" />
        </mxCell>
        <mxCell id="eWMClW8__IOZqlcNLexk-286" value="`" style="rounded=1;whiteSpace=wrap;html=1;fillColor=default;" vertex="1" parent="eWMClW8__IOZqlcNLexk-285">
          <mxGeometry x="70" y="15" width="2400" height="1490" as="geometry" />
        </mxCell>
        <mxCell id="eWMClW8__IOZqlcNLexk-287" value="&lt;font style=&quot;font-size: 40px;&quot;&gt;AccountService&lt;/font&gt;" style="text;strokeColor=none;fillColor=none;html=1;fontSize=24;fontStyle=1;verticalAlign=middle;align=center;strokeWidth=1;" vertex="1" parent="eWMClW8__IOZqlcNLexk-285">
          <mxGeometry x="1091.97" y="20" width="356.06" height="70.95" as="geometry" />
        </mxCell>
        <mxCell id="eWMClW8__IOZqlcNLexk-288" value="" style="group" vertex="1" connectable="0" parent="eWMClW8__IOZqlcNLexk-285">
          <mxGeometry x="170" y="180" width="540" height="200" as="geometry" />
        </mxCell>
        <mxCell id="eWMClW8__IOZqlcNLexk-289" value="&lt;font style=&quot;font-size: 14px;&quot;&gt;onMessage(AuthorizationEvent)&lt;/font&gt;" style="rounded=1;whiteSpace=wrap;html=1;" vertex="1" parent="eWMClW8__IOZqlcNLexk-288">
          <mxGeometry width="440" height="140" as="geometry" />
        </mxCell>
        <mxCell id="eWMClW8__IOZqlcNLexk-290" value="AuthorizationEventListener" style="text;strokeColor=none;fillColor=none;html=1;fontSize=24;fontStyle=1;verticalAlign=middle;align=center;" vertex="1" parent="eWMClW8__IOZqlcNLexk-288">
          <mxGeometry x="79.99983462322307" y="20.003173803526447" width="266.55564912753493" height="10.171284634760706" as="geometry" />
        </mxCell>
        <mxCell id="eWMClW8__IOZqlcNLexk-383" value="" style="group" vertex="1" connectable="0" parent="eWMClW8__IOZqlcNLexk-285">
          <mxGeometry x="670" y="180" width="520" height="270" as="geometry" />
        </mxCell>
        <mxCell id="eWMClW8__IOZqlcNLexk-384" value="" style="rounded=1;whiteSpace=wrap;html=1;" vertex="1" parent="eWMClW8__IOZqlcNLexk-383">
          <mxGeometry x="14.45" width="495.55" height="213.86" as="geometry" />
        </mxCell>
        <mxCell id="eWMClW8__IOZqlcNLexk-385" value="BalanceService" style="text;strokeColor=none;fillColor=none;html=1;fontSize=24;fontStyle=1;verticalAlign=middle;align=center;" vertex="1" parent="eWMClW8__IOZqlcNLexk-383">
          <mxGeometry x="155.30040965937883" y="6.429207920792079" width="166.29783399582297" height="26.98663366336634" as="geometry" />
        </mxCell>
        <mxCell id="eWMClW8__IOZqlcNLexk-386" value="&lt;div&gt;&lt;div&gt;&lt;font style=&quot;font-size: 14px;&quot;&gt;&lt;br&gt;&lt;/font&gt;&lt;/div&gt;&lt;div&gt;&lt;font style=&quot;font-size: 14px;&quot;&gt;&lt;br&gt;&lt;/font&gt;&lt;/div&gt;&lt;div&gt;&lt;font style=&quot;font-size: 14px;&quot;&gt;&lt;br&gt;&lt;/font&gt;&lt;/div&gt;&lt;div&gt;&lt;br&gt;&lt;/div&gt;&lt;div&gt;&lt;font style=&quot;font-size: 14px;&quot;&gt;boolean updateAuthBalance&amp;nbsp;&lt;/font&gt;&lt;span style=&quot;font-size: 14px; background-color: initial;&quot;&gt;(Long accountId, Bigdecimal amount)&lt;/span&gt;&lt;/div&gt;&lt;/div&gt;&lt;div&gt;&lt;font style=&quot;font-size: 14px;&quot;&gt;boolean updateActualBalance&amp;nbsp;&lt;/font&gt;&lt;span style=&quot;background-color: initial; font-size: 14px;&quot;&gt;(Long accountId)&lt;/span&gt;&lt;span style=&quot;font-size: 14px; background-color: initial;&quot;&gt;&lt;/span&gt;&lt;/div&gt;&lt;div&gt;&lt;span style=&quot;background-color: initial; font-size: 14px;&quot;&gt;boolean resetAuthBalance (Long accountId)&lt;/span&gt;&lt;/div&gt;&lt;div&gt;&lt;span style=&quot;font-size: 14px; background-color: initial;&quot;&gt;&lt;br&gt;&lt;/span&gt;&lt;/div&gt;&lt;div&gt;&lt;br&gt;&lt;/div&gt;&lt;div&gt;&lt;font style=&quot;font-size: 14px;&quot;&gt;&lt;br&gt;&lt;/font&gt;&lt;/div&gt;" style="text;html=1;align=left;verticalAlign=middle;whiteSpace=wrap;rounded=0;" vertex="1" parent="eWMClW8__IOZqlcNLexk-383">
          <mxGeometry x="34.1" y="39.51" width="445.9" height="115.74" as="geometry" />
        </mxCell>
        <mxCell id="eWMClW8__IOZqlcNLexk-430" value="" style="group" vertex="1" connectable="0" parent="eWMClW8__IOZqlcNLexk-285">
          <mxGeometry x="1250" y="180" width="440" height="400" as="geometry" />
        </mxCell>
        <mxCell id="eWMClW8__IOZqlcNLexk-431" value="" style="rounded=1;whiteSpace=wrap;html=1;" vertex="1" parent="eWMClW8__IOZqlcNLexk-430">
          <mxGeometry x="12.23" width="307.77" height="210" as="geometry" />
        </mxCell>
        <mxCell id="eWMClW8__IOZqlcNLexk-432" value="BalanceRepository" style="text;strokeColor=none;fillColor=none;html=1;fontSize=24;fontStyle=1;verticalAlign=middle;align=center;" vertex="1" parent="eWMClW8__IOZqlcNLexk-430">
          <mxGeometry x="69.52852459016395" y="40" width="193.1816393442623" height="39.98" as="geometry" />
        </mxCell>
        <mxCell id="eWMClW8__IOZqlcNLexk-433" value="" style="group" vertex="1" connectable="0" parent="eWMClW8__IOZqlcNLexk-285">
          <mxGeometry x="170" y="380" width="540" height="200" as="geometry" />
        </mxCell>
        <mxCell id="eWMClW8__IOZqlcNLexk-434" value="&lt;font style=&quot;font-size: 14px;&quot;&gt;onMessage(ClearingEvent)&lt;/font&gt;" style="rounded=1;whiteSpace=wrap;html=1;" vertex="1" parent="eWMClW8__IOZqlcNLexk-433">
          <mxGeometry width="440" height="140" as="geometry" />
        </mxCell>
        <mxCell id="eWMClW8__IOZqlcNLexk-435" value="ClearingEventListener" style="text;strokeColor=none;fillColor=none;html=1;fontSize=24;fontStyle=1;verticalAlign=middle;align=center;" vertex="1" parent="eWMClW8__IOZqlcNLexk-433">
          <mxGeometry x="79.99983462322307" y="20.003173803526447" width="266.55564912753493" height="10.171284634760706" as="geometry" />
        </mxCell>
        <mxCell id="eWMClW8__IOZqlcNLexk-453" value="" style="group" vertex="1" connectable="0" parent="eWMClW8__IOZqlcNLexk-285">
          <mxGeometry x="170" y="560" width="540" height="200" as="geometry" />
        </mxCell>
        <mxCell id="eWMClW8__IOZqlcNLexk-454" value="&lt;font style=&quot;font-size: 14px;&quot;&gt;onMessage(ClearingEvent)&lt;/font&gt;" style="rounded=1;whiteSpace=wrap;html=1;" vertex="1" parent="eWMClW8__IOZqlcNLexk-453">
          <mxGeometry width="440" height="140" as="geometry" />
        </mxCell>
        <mxCell id="eWMClW8__IOZqlcNLexk-455" value="CancelEventListener" style="text;strokeColor=none;fillColor=none;html=1;fontSize=24;fontStyle=1;verticalAlign=middle;align=center;" vertex="1" parent="eWMClW8__IOZqlcNLexk-453">
          <mxGeometry x="79.99983462322307" y="20.003173803526447" width="266.55564912753493" height="10.171284634760706" as="geometry" />
        </mxCell>
        <mxCell id="eWMClW8__IOZqlcNLexk-327" value="" style="edgeStyle=elbowEdgeStyle;elbow=horizontal;endArrow=classic;html=1;curved=0;rounded=0;endSize=8;startSize=8;exitX=1;exitY=0.5;exitDx=0;exitDy=0;entryX=0;entryY=0.5;entryDx=0;entryDy=0;" edge="1" parent="1" source="eWMClW8__IOZqlcNLexk-272" target="eWMClW8__IOZqlcNLexk-289">
          <mxGeometry width="50" height="50" relative="1" as="geometry">
            <mxPoint x="-2470" y="-2620" as="sourcePoint" />
            <mxPoint x="-2420" y="-2670" as="targetPoint" />
          </mxGeometry>
        </mxCell>
        <mxCell id="eWMClW8__IOZqlcNLexk-328" value="Account" style="shape=table;startSize=30;container=1;collapsible=0;childLayout=tableLayout;fixedRows=1;rowLines=0;fontStyle=0;strokeColor=default;fontSize=16;" vertex="1" parent="1">
          <mxGeometry x="-3720" y="-1160" width="180" height="300" as="geometry" />
        </mxCell>
        <mxCell id="eWMClW8__IOZqlcNLexk-329" value="" style="shape=tableRow;horizontal=0;startSize=0;swimlaneHead=0;swimlaneBody=0;top=0;left=0;bottom=0;right=0;collapsible=0;dropTarget=0;fillColor=none;points=[[0,0.5],[1,0.5]];portConstraint=eastwest;strokeColor=inherit;fontSize=16;" vertex="1" parent="eWMClW8__IOZqlcNLexk-328">
          <mxGeometry y="30" width="180" height="30" as="geometry" />
        </mxCell>
        <mxCell id="eWMClW8__IOZqlcNLexk-330" value="1" style="shape=partialRectangle;html=1;whiteSpace=wrap;connectable=0;fillColor=none;top=0;left=0;bottom=0;right=0;overflow=hidden;pointerEvents=1;strokeColor=inherit;fontSize=16;" vertex="1" parent="eWMClW8__IOZqlcNLexk-329">
          <mxGeometry width="40" height="30" as="geometry">
            <mxRectangle width="40" height="30" as="alternateBounds" />
          </mxGeometry>
        </mxCell>
        <mxCell id="eWMClW8__IOZqlcNLexk-331" value="Id" style="shape=partialRectangle;html=1;whiteSpace=wrap;connectable=0;fillColor=none;top=0;left=0;bottom=0;right=0;align=left;spacingLeft=6;overflow=hidden;strokeColor=inherit;fontSize=16;" vertex="1" parent="eWMClW8__IOZqlcNLexk-329">
          <mxGeometry x="40" width="140" height="30" as="geometry">
            <mxRectangle width="140" height="30" as="alternateBounds" />
          </mxGeometry>
        </mxCell>
        <mxCell id="eWMClW8__IOZqlcNLexk-332" value="" style="shape=tableRow;horizontal=0;startSize=0;swimlaneHead=0;swimlaneBody=0;top=0;left=0;bottom=0;right=0;collapsible=0;dropTarget=0;fillColor=none;points=[[0,0.5],[1,0.5]];portConstraint=eastwest;strokeColor=inherit;fontSize=16;" vertex="1" parent="eWMClW8__IOZqlcNLexk-328">
          <mxGeometry y="60" width="180" height="30" as="geometry" />
        </mxCell>
        <mxCell id="eWMClW8__IOZqlcNLexk-333" value="2" style="shape=partialRectangle;html=1;whiteSpace=wrap;connectable=0;fillColor=none;top=0;left=0;bottom=0;right=0;overflow=hidden;strokeColor=inherit;fontSize=16;" vertex="1" parent="eWMClW8__IOZqlcNLexk-332">
          <mxGeometry width="40" height="30" as="geometry">
            <mxRectangle width="40" height="30" as="alternateBounds" />
          </mxGeometry>
        </mxCell>
        <mxCell id="eWMClW8__IOZqlcNLexk-334" value="closed_at" style="shape=partialRectangle;html=1;whiteSpace=wrap;connectable=0;fillColor=none;top=0;left=0;bottom=0;right=0;align=left;spacingLeft=6;overflow=hidden;strokeColor=inherit;fontSize=16;" vertex="1" parent="eWMClW8__IOZqlcNLexk-332">
          <mxGeometry x="40" width="140" height="30" as="geometry">
            <mxRectangle width="140" height="30" as="alternateBounds" />
          </mxGeometry>
        </mxCell>
        <mxCell id="eWMClW8__IOZqlcNLexk-335" value="" style="shape=tableRow;horizontal=0;startSize=0;swimlaneHead=0;swimlaneBody=0;top=0;left=0;bottom=0;right=0;collapsible=0;dropTarget=0;fillColor=none;points=[[0,0.5],[1,0.5]];portConstraint=eastwest;strokeColor=inherit;fontSize=16;" vertex="1" parent="eWMClW8__IOZqlcNLexk-328">
          <mxGeometry y="90" width="180" height="30" as="geometry" />
        </mxCell>
        <mxCell id="eWMClW8__IOZqlcNLexk-336" value="3" style="shape=partialRectangle;html=1;whiteSpace=wrap;connectable=0;fillColor=none;top=0;left=0;bottom=0;right=0;overflow=hidden;strokeColor=inherit;fontSize=16;" vertex="1" parent="eWMClW8__IOZqlcNLexk-335">
          <mxGeometry width="40" height="30" as="geometry">
            <mxRectangle width="40" height="30" as="alternateBounds" />
          </mxGeometry>
        </mxCell>
        <mxCell id="eWMClW8__IOZqlcNLexk-337" value="accounttype" style="shape=partialRectangle;html=1;whiteSpace=wrap;connectable=0;fillColor=none;top=0;left=0;bottom=0;right=0;align=left;spacingLeft=6;overflow=hidden;strokeColor=inherit;fontSize=16;" vertex="1" parent="eWMClW8__IOZqlcNLexk-335">
          <mxGeometry x="40" width="140" height="30" as="geometry">
            <mxRectangle width="140" height="30" as="alternateBounds" />
          </mxGeometry>
        </mxCell>
        <mxCell id="eWMClW8__IOZqlcNLexk-338" value="" style="shape=tableRow;horizontal=0;startSize=0;swimlaneHead=0;swimlaneBody=0;top=0;left=0;bottom=0;right=0;collapsible=0;dropTarget=0;fillColor=none;points=[[0,0.5],[1,0.5]];portConstraint=eastwest;strokeColor=inherit;fontSize=16;" vertex="1" parent="eWMClW8__IOZqlcNLexk-328">
          <mxGeometry y="120" width="180" height="30" as="geometry" />
        </mxCell>
        <mxCell id="eWMClW8__IOZqlcNLexk-339" value="4" style="shape=partialRectangle;html=1;whiteSpace=wrap;connectable=0;fillColor=none;top=0;left=0;bottom=0;right=0;overflow=hidden;strokeColor=inherit;fontSize=16;" vertex="1" parent="eWMClW8__IOZqlcNLexk-338">
          <mxGeometry width="40" height="30" as="geometry">
            <mxRectangle width="40" height="30" as="alternateBounds" />
          </mxGeometry>
        </mxCell>
        <mxCell id="eWMClW8__IOZqlcNLexk-340" value="created_at" style="shape=partialRectangle;html=1;whiteSpace=wrap;connectable=0;fillColor=none;top=0;left=0;bottom=0;right=0;align=left;spacingLeft=6;overflow=hidden;strokeColor=inherit;fontSize=16;" vertex="1" parent="eWMClW8__IOZqlcNLexk-338">
          <mxGeometry x="40" width="140" height="30" as="geometry">
            <mxRectangle width="140" height="30" as="alternateBounds" />
          </mxGeometry>
        </mxCell>
        <mxCell id="eWMClW8__IOZqlcNLexk-341" value="" style="shape=tableRow;horizontal=0;startSize=0;swimlaneHead=0;swimlaneBody=0;top=0;left=0;bottom=0;right=0;collapsible=0;dropTarget=0;fillColor=none;points=[[0,0.5],[1,0.5]];portConstraint=eastwest;strokeColor=inherit;fontSize=16;" vertex="1" parent="eWMClW8__IOZqlcNLexk-328">
          <mxGeometry y="150" width="180" height="30" as="geometry" />
        </mxCell>
        <mxCell id="eWMClW8__IOZqlcNLexk-342" value="5" style="shape=partialRectangle;html=1;whiteSpace=wrap;connectable=0;fillColor=none;top=0;left=0;bottom=0;right=0;overflow=hidden;strokeColor=inherit;fontSize=16;" vertex="1" parent="eWMClW8__IOZqlcNLexk-341">
          <mxGeometry width="40" height="30" as="geometry">
            <mxRectangle width="40" height="30" as="alternateBounds" />
          </mxGeometry>
        </mxCell>
        <mxCell id="eWMClW8__IOZqlcNLexk-343" value="currency" style="shape=partialRectangle;html=1;whiteSpace=wrap;connectable=0;fillColor=none;top=0;left=0;bottom=0;right=0;align=left;spacingLeft=6;overflow=hidden;strokeColor=inherit;fontSize=16;" vertex="1" parent="eWMClW8__IOZqlcNLexk-341">
          <mxGeometry x="40" width="140" height="30" as="geometry">
            <mxRectangle width="140" height="30" as="alternateBounds" />
          </mxGeometry>
        </mxCell>
        <mxCell id="eWMClW8__IOZqlcNLexk-344" value="" style="shape=tableRow;horizontal=0;startSize=0;swimlaneHead=0;swimlaneBody=0;top=0;left=0;bottom=0;right=0;collapsible=0;dropTarget=0;fillColor=none;points=[[0,0.5],[1,0.5]];portConstraint=eastwest;strokeColor=inherit;fontSize=16;" vertex="1" parent="eWMClW8__IOZqlcNLexk-328">
          <mxGeometry y="180" width="180" height="30" as="geometry" />
        </mxCell>
        <mxCell id="eWMClW8__IOZqlcNLexk-345" value="6" style="shape=partialRectangle;html=1;whiteSpace=wrap;connectable=0;fillColor=none;top=0;left=0;bottom=0;right=0;overflow=hidden;strokeColor=inherit;fontSize=16;" vertex="1" parent="eWMClW8__IOZqlcNLexk-344">
          <mxGeometry width="40" height="30" as="geometry">
            <mxRectangle width="40" height="30" as="alternateBounds" />
          </mxGeometry>
        </mxCell>
        <mxCell id="eWMClW8__IOZqlcNLexk-346" value="number" style="shape=partialRectangle;html=1;whiteSpace=wrap;connectable=0;fillColor=none;top=0;left=0;bottom=0;right=0;align=left;spacingLeft=6;overflow=hidden;strokeColor=inherit;fontSize=16;" vertex="1" parent="eWMClW8__IOZqlcNLexk-344">
          <mxGeometry x="40" width="140" height="30" as="geometry">
            <mxRectangle width="140" height="30" as="alternateBounds" />
          </mxGeometry>
        </mxCell>
        <mxCell id="eWMClW8__IOZqlcNLexk-347" value="" style="shape=tableRow;horizontal=0;startSize=0;swimlaneHead=0;swimlaneBody=0;top=0;left=0;bottom=0;right=0;collapsible=0;dropTarget=0;fillColor=none;points=[[0,0.5],[1,0.5]];portConstraint=eastwest;strokeColor=inherit;fontSize=16;" vertex="1" parent="eWMClW8__IOZqlcNLexk-328">
          <mxGeometry y="210" width="180" height="30" as="geometry" />
        </mxCell>
        <mxCell id="eWMClW8__IOZqlcNLexk-348" value="7" style="shape=partialRectangle;html=1;whiteSpace=wrap;connectable=0;fillColor=none;top=0;left=0;bottom=0;right=0;overflow=hidden;strokeColor=inherit;fontSize=16;" vertex="1" parent="eWMClW8__IOZqlcNLexk-347">
          <mxGeometry width="40" height="30" as="geometry">
            <mxRectangle width="40" height="30" as="alternateBounds" />
          </mxGeometry>
        </mxCell>
        <mxCell id="eWMClW8__IOZqlcNLexk-349" value="status" style="shape=partialRectangle;html=1;whiteSpace=wrap;connectable=0;fillColor=none;top=0;left=0;bottom=0;right=0;align=left;spacingLeft=6;overflow=hidden;strokeColor=inherit;fontSize=16;" vertex="1" parent="eWMClW8__IOZqlcNLexk-347">
          <mxGeometry x="40" width="140" height="30" as="geometry">
            <mxRectangle width="140" height="30" as="alternateBounds" />
          </mxGeometry>
        </mxCell>
        <mxCell id="eWMClW8__IOZqlcNLexk-350" value="" style="shape=tableRow;horizontal=0;startSize=0;swimlaneHead=0;swimlaneBody=0;top=0;left=0;bottom=0;right=0;collapsible=0;dropTarget=0;fillColor=none;points=[[0,0.5],[1,0.5]];portConstraint=eastwest;strokeColor=inherit;fontSize=16;" vertex="1" parent="eWMClW8__IOZqlcNLexk-328">
          <mxGeometry y="240" width="180" height="30" as="geometry" />
        </mxCell>
        <mxCell id="eWMClW8__IOZqlcNLexk-351" value="8" style="shape=partialRectangle;html=1;whiteSpace=wrap;connectable=0;fillColor=none;top=0;left=0;bottom=0;right=0;overflow=hidden;strokeColor=inherit;fontSize=16;" vertex="1" parent="eWMClW8__IOZqlcNLexk-350">
          <mxGeometry width="40" height="30" as="geometry">
            <mxRectangle width="40" height="30" as="alternateBounds" />
          </mxGeometry>
        </mxCell>
        <mxCell id="eWMClW8__IOZqlcNLexk-352" value="updated_at" style="shape=partialRectangle;html=1;whiteSpace=wrap;connectable=0;fillColor=none;top=0;left=0;bottom=0;right=0;align=left;spacingLeft=6;overflow=hidden;strokeColor=inherit;fontSize=16;" vertex="1" parent="eWMClW8__IOZqlcNLexk-350">
          <mxGeometry x="40" width="140" height="30" as="geometry">
            <mxRectangle width="140" height="30" as="alternateBounds" />
          </mxGeometry>
        </mxCell>
        <mxCell id="eWMClW8__IOZqlcNLexk-353" value="" style="shape=tableRow;horizontal=0;startSize=0;swimlaneHead=0;swimlaneBody=0;top=0;left=0;bottom=0;right=0;collapsible=0;dropTarget=0;fillColor=none;points=[[0,0.5],[1,0.5]];portConstraint=eastwest;strokeColor=inherit;fontSize=16;" vertex="1" parent="eWMClW8__IOZqlcNLexk-328">
          <mxGeometry y="270" width="180" height="30" as="geometry" />
        </mxCell>
        <mxCell id="eWMClW8__IOZqlcNLexk-354" value="9" style="shape=partialRectangle;html=1;whiteSpace=wrap;connectable=0;fillColor=none;top=0;left=0;bottom=0;right=0;overflow=hidden;strokeColor=inherit;fontSize=16;" vertex="1" parent="eWMClW8__IOZqlcNLexk-353">
          <mxGeometry width="40" height="30" as="geometry">
            <mxRectangle width="40" height="30" as="alternateBounds" />
          </mxGeometry>
        </mxCell>
        <mxCell id="eWMClW8__IOZqlcNLexk-355" value="version" style="shape=partialRectangle;html=1;whiteSpace=wrap;connectable=0;fillColor=none;top=0;left=0;bottom=0;right=0;align=left;spacingLeft=6;overflow=hidden;strokeColor=inherit;fontSize=16;" vertex="1" parent="eWMClW8__IOZqlcNLexk-353">
          <mxGeometry x="40" width="140" height="30" as="geometry">
            <mxRectangle width="140" height="30" as="alternateBounds" />
          </mxGeometry>
        </mxCell>
        <mxCell id="eWMClW8__IOZqlcNLexk-356" value="Balance" style="shape=table;startSize=30;container=1;collapsible=0;childLayout=tableLayout;fixedRows=1;rowLines=0;fontStyle=0;strokeColor=default;fontSize=16;" vertex="1" parent="1">
          <mxGeometry x="-3220" y="-1260" width="230" height="240" as="geometry" />
        </mxCell>
        <mxCell id="eWMClW8__IOZqlcNLexk-357" value="" style="shape=tableRow;horizontal=0;startSize=0;swimlaneHead=0;swimlaneBody=0;top=0;left=0;bottom=0;right=0;collapsible=0;dropTarget=0;fillColor=none;points=[[0,0.5],[1,0.5]];portConstraint=eastwest;strokeColor=inherit;fontSize=16;" vertex="1" parent="eWMClW8__IOZqlcNLexk-356">
          <mxGeometry y="30" width="230" height="30" as="geometry" />
        </mxCell>
        <mxCell id="eWMClW8__IOZqlcNLexk-358" value="1" style="shape=partialRectangle;html=1;whiteSpace=wrap;connectable=0;fillColor=none;top=0;left=0;bottom=0;right=0;overflow=hidden;pointerEvents=1;strokeColor=inherit;fontSize=16;" vertex="1" parent="eWMClW8__IOZqlcNLexk-357">
          <mxGeometry width="51" height="30" as="geometry">
            <mxRectangle width="51" height="30" as="alternateBounds" />
          </mxGeometry>
        </mxCell>
        <mxCell id="eWMClW8__IOZqlcNLexk-359" value="Id" style="shape=partialRectangle;html=1;whiteSpace=wrap;connectable=0;fillColor=none;top=0;left=0;bottom=0;right=0;align=left;spacingLeft=6;overflow=hidden;strokeColor=inherit;fontSize=16;" vertex="1" parent="eWMClW8__IOZqlcNLexk-357">
          <mxGeometry x="51" width="179" height="30" as="geometry">
            <mxRectangle width="179" height="30" as="alternateBounds" />
          </mxGeometry>
        </mxCell>
        <mxCell id="eWMClW8__IOZqlcNLexk-360" value="" style="shape=tableRow;horizontal=0;startSize=0;swimlaneHead=0;swimlaneBody=0;top=0;left=0;bottom=0;right=0;collapsible=0;dropTarget=0;fillColor=none;points=[[0,0.5],[1,0.5]];portConstraint=eastwest;strokeColor=inherit;fontSize=16;" vertex="1" parent="eWMClW8__IOZqlcNLexk-356">
          <mxGeometry y="60" width="230" height="30" as="geometry" />
        </mxCell>
        <mxCell id="eWMClW8__IOZqlcNLexk-361" value="2" style="shape=partialRectangle;html=1;whiteSpace=wrap;connectable=0;fillColor=none;top=0;left=0;bottom=0;right=0;overflow=hidden;strokeColor=inherit;fontSize=16;" vertex="1" parent="eWMClW8__IOZqlcNLexk-360">
          <mxGeometry width="51" height="30" as="geometry">
            <mxRectangle width="51" height="30" as="alternateBounds" />
          </mxGeometry>
        </mxCell>
        <mxCell id="eWMClW8__IOZqlcNLexk-362" value="account_id" style="shape=partialRectangle;html=1;whiteSpace=wrap;connectable=0;fillColor=none;top=0;left=0;bottom=0;right=0;align=left;spacingLeft=6;overflow=hidden;strokeColor=inherit;fontSize=16;" vertex="1" parent="eWMClW8__IOZqlcNLexk-360">
          <mxGeometry x="51" width="179" height="30" as="geometry">
            <mxRectangle width="179" height="30" as="alternateBounds" />
          </mxGeometry>
        </mxCell>
        <mxCell id="eWMClW8__IOZqlcNLexk-363" value="" style="shape=tableRow;horizontal=0;startSize=0;swimlaneHead=0;swimlaneBody=0;top=0;left=0;bottom=0;right=0;collapsible=0;dropTarget=0;fillColor=none;points=[[0,0.5],[1,0.5]];portConstraint=eastwest;strokeColor=inherit;fontSize=16;" vertex="1" parent="eWMClW8__IOZqlcNLexk-356">
          <mxGeometry y="90" width="230" height="30" as="geometry" />
        </mxCell>
        <mxCell id="eWMClW8__IOZqlcNLexk-364" value="3" style="shape=partialRectangle;html=1;whiteSpace=wrap;connectable=0;fillColor=none;top=0;left=0;bottom=0;right=0;overflow=hidden;strokeColor=inherit;fontSize=16;" vertex="1" parent="eWMClW8__IOZqlcNLexk-363">
          <mxGeometry width="51" height="30" as="geometry">
            <mxRectangle width="51" height="30" as="alternateBounds" />
          </mxGeometry>
        </mxCell>
        <mxCell id="eWMClW8__IOZqlcNLexk-365" value="auth_balance" style="shape=partialRectangle;html=1;whiteSpace=wrap;connectable=0;fillColor=none;top=0;left=0;bottom=0;right=0;align=left;spacingLeft=6;overflow=hidden;strokeColor=inherit;fontSize=16;" vertex="1" parent="eWMClW8__IOZqlcNLexk-363">
          <mxGeometry x="51" width="179" height="30" as="geometry">
            <mxRectangle width="179" height="30" as="alternateBounds" />
          </mxGeometry>
        </mxCell>
        <mxCell id="eWMClW8__IOZqlcNLexk-366" value="" style="shape=tableRow;horizontal=0;startSize=0;swimlaneHead=0;swimlaneBody=0;top=0;left=0;bottom=0;right=0;collapsible=0;dropTarget=0;fillColor=none;points=[[0,0.5],[1,0.5]];portConstraint=eastwest;strokeColor=inherit;fontSize=16;" vertex="1" parent="eWMClW8__IOZqlcNLexk-356">
          <mxGeometry y="120" width="230" height="30" as="geometry" />
        </mxCell>
        <mxCell id="eWMClW8__IOZqlcNLexk-367" value="4" style="shape=partialRectangle;html=1;whiteSpace=wrap;connectable=0;fillColor=none;top=0;left=0;bottom=0;right=0;overflow=hidden;strokeColor=inherit;fontSize=16;" vertex="1" parent="eWMClW8__IOZqlcNLexk-366">
          <mxGeometry width="51" height="30" as="geometry">
            <mxRectangle width="51" height="30" as="alternateBounds" />
          </mxGeometry>
        </mxCell>
        <mxCell id="eWMClW8__IOZqlcNLexk-368" value="actual_balance" style="shape=partialRectangle;html=1;whiteSpace=wrap;connectable=0;fillColor=none;top=0;left=0;bottom=0;right=0;align=left;spacingLeft=6;overflow=hidden;strokeColor=inherit;fontSize=16;" vertex="1" parent="eWMClW8__IOZqlcNLexk-366">
          <mxGeometry x="51" width="179" height="30" as="geometry">
            <mxRectangle width="179" height="30" as="alternateBounds" />
          </mxGeometry>
        </mxCell>
        <mxCell id="eWMClW8__IOZqlcNLexk-369" value="" style="shape=tableRow;horizontal=0;startSize=0;swimlaneHead=0;swimlaneBody=0;top=0;left=0;bottom=0;right=0;collapsible=0;dropTarget=0;fillColor=none;points=[[0,0.5],[1,0.5]];portConstraint=eastwest;strokeColor=inherit;fontSize=16;" vertex="1" parent="eWMClW8__IOZqlcNLexk-356">
          <mxGeometry y="150" width="230" height="30" as="geometry" />
        </mxCell>
        <mxCell id="eWMClW8__IOZqlcNLexk-370" value="5" style="shape=partialRectangle;html=1;whiteSpace=wrap;connectable=0;fillColor=none;top=0;left=0;bottom=0;right=0;overflow=hidden;strokeColor=inherit;fontSize=16;" vertex="1" parent="eWMClW8__IOZqlcNLexk-369">
          <mxGeometry width="51" height="30" as="geometry">
            <mxRectangle width="51" height="30" as="alternateBounds" />
          </mxGeometry>
        </mxCell>
        <mxCell id="eWMClW8__IOZqlcNLexk-371" value="created_at" style="shape=partialRectangle;html=1;whiteSpace=wrap;connectable=0;fillColor=none;top=0;left=0;bottom=0;right=0;align=left;spacingLeft=6;overflow=hidden;strokeColor=inherit;fontSize=16;" vertex="1" parent="eWMClW8__IOZqlcNLexk-369">
          <mxGeometry x="51" width="179" height="30" as="geometry">
            <mxRectangle width="179" height="30" as="alternateBounds" />
          </mxGeometry>
        </mxCell>
        <mxCell id="eWMClW8__IOZqlcNLexk-372" value="" style="shape=tableRow;horizontal=0;startSize=0;swimlaneHead=0;swimlaneBody=0;top=0;left=0;bottom=0;right=0;collapsible=0;dropTarget=0;fillColor=none;points=[[0,0.5],[1,0.5]];portConstraint=eastwest;strokeColor=inherit;fontSize=16;" vertex="1" parent="eWMClW8__IOZqlcNLexk-356">
          <mxGeometry y="180" width="230" height="30" as="geometry" />
        </mxCell>
        <mxCell id="eWMClW8__IOZqlcNLexk-373" value="6" style="shape=partialRectangle;html=1;whiteSpace=wrap;connectable=0;fillColor=none;top=0;left=0;bottom=0;right=0;overflow=hidden;strokeColor=inherit;fontSize=16;" vertex="1" parent="eWMClW8__IOZqlcNLexk-372">
          <mxGeometry width="51" height="30" as="geometry">
            <mxRectangle width="51" height="30" as="alternateBounds" />
          </mxGeometry>
        </mxCell>
        <mxCell id="eWMClW8__IOZqlcNLexk-374" value="updated_at" style="shape=partialRectangle;html=1;whiteSpace=wrap;connectable=0;fillColor=none;top=0;left=0;bottom=0;right=0;align=left;spacingLeft=6;overflow=hidden;strokeColor=inherit;fontSize=16;" vertex="1" parent="eWMClW8__IOZqlcNLexk-372">
          <mxGeometry x="51" width="179" height="30" as="geometry">
            <mxRectangle width="179" height="30" as="alternateBounds" />
          </mxGeometry>
        </mxCell>
        <mxCell id="eWMClW8__IOZqlcNLexk-375" value="" style="shape=tableRow;horizontal=0;startSize=0;swimlaneHead=0;swimlaneBody=0;top=0;left=0;bottom=0;right=0;collapsible=0;dropTarget=0;fillColor=none;points=[[0,0.5],[1,0.5]];portConstraint=eastwest;strokeColor=inherit;fontSize=16;" vertex="1" parent="eWMClW8__IOZqlcNLexk-356">
          <mxGeometry y="210" width="230" height="30" as="geometry" />
        </mxCell>
        <mxCell id="eWMClW8__IOZqlcNLexk-376" value="6" style="shape=partialRectangle;html=1;whiteSpace=wrap;connectable=0;fillColor=none;top=0;left=0;bottom=0;right=0;overflow=hidden;strokeColor=inherit;fontSize=16;" vertex="1" parent="eWMClW8__IOZqlcNLexk-375">
          <mxGeometry width="51" height="30" as="geometry">
            <mxRectangle width="51" height="30" as="alternateBounds" />
          </mxGeometry>
        </mxCell>
        <mxCell id="eWMClW8__IOZqlcNLexk-377" value="version" style="shape=partialRectangle;html=1;whiteSpace=wrap;connectable=0;fillColor=none;top=0;left=0;bottom=0;right=0;align=left;spacingLeft=6;overflow=hidden;strokeColor=inherit;fontSize=16;" vertex="1" parent="eWMClW8__IOZqlcNLexk-375">
          <mxGeometry x="51" width="179" height="30" as="geometry">
            <mxRectangle width="179" height="30" as="alternateBounds" />
          </mxGeometry>
        </mxCell>
        <mxCell id="eWMClW8__IOZqlcNLexk-378" value="" style="edgeStyle=elbowEdgeStyle;elbow=horizontal;endArrow=classic;html=1;curved=0;rounded=0;endSize=8;startSize=8;entryX=1;entryY=0.5;entryDx=0;entryDy=0;exitX=0;exitY=0.5;exitDx=0;exitDy=0;" edge="1" parent="1" source="eWMClW8__IOZqlcNLexk-360" target="eWMClW8__IOZqlcNLexk-329">
          <mxGeometry width="50" height="50" relative="1" as="geometry">
            <mxPoint x="-3610" y="-1170" as="sourcePoint" />
            <mxPoint x="-3560" y="-1220" as="targetPoint" />
          </mxGeometry>
        </mxCell>
        <mxCell id="eWMClW8__IOZqlcNLexk-379" value="" style="edgeStyle=elbowEdgeStyle;elbow=horizontal;endArrow=classic;html=1;curved=0;rounded=0;endSize=8;startSize=8;exitX=1;exitY=0.5;exitDx=0;exitDy=0;entryX=0;entryY=0.5;entryDx=0;entryDy=0;" edge="1" parent="1" source="eWMClW8__IOZqlcNLexk-195" target="eWMClW8__IOZqlcNLexk-329">
          <mxGeometry width="50" height="50" relative="1" as="geometry">
            <mxPoint x="-3610" y="-1170" as="sourcePoint" />
            <mxPoint x="-3560" y="-1220" as="targetPoint" />
          </mxGeometry>
        </mxCell>
        <mxCell id="eWMClW8__IOZqlcNLexk-380" value="" style="edgeStyle=elbowEdgeStyle;elbow=horizontal;endArrow=classic;html=1;curved=0;rounded=0;endSize=8;startSize=8;exitX=1;exitY=0.5;exitDx=0;exitDy=0;entryX=0;entryY=0.5;entryDx=0;entryDy=0;" edge="1" parent="1" source="eWMClW8__IOZqlcNLexk-198" target="eWMClW8__IOZqlcNLexk-329">
          <mxGeometry width="50" height="50" relative="1" as="geometry">
            <mxPoint x="-3610" y="-1170" as="sourcePoint" />
            <mxPoint x="-3560" y="-1220" as="targetPoint" />
          </mxGeometry>
        </mxCell>
        <mxCell id="eWMClW8__IOZqlcNLexk-382" value="" style="edgeStyle=elbowEdgeStyle;elbow=horizontal;endArrow=classic;html=1;curved=0;rounded=0;endSize=8;startSize=8;entryX=0;entryY=0.5;entryDx=0;entryDy=0;exitX=1;exitY=0.5;exitDx=0;exitDy=0;" edge="1" parent="1" source="eWMClW8__IOZqlcNLexk-249" target="eWMClW8__IOZqlcNLexk-357">
          <mxGeometry width="50" height="50" relative="1" as="geometry">
            <mxPoint x="-3610" y="-1170" as="sourcePoint" />
            <mxPoint x="-3560" y="-1220" as="targetPoint" />
          </mxGeometry>
        </mxCell>
        <mxCell id="eWMClW8__IOZqlcNLexk-452" value="" style="edgeStyle=elbowEdgeStyle;elbow=horizontal;endArrow=classic;html=1;curved=0;rounded=0;endSize=8;startSize=8;exitX=1;exitY=0.5;exitDx=0;exitDy=0;entryX=0;entryY=0.5;entryDx=0;entryDy=0;" edge="1" parent="1" source="eWMClW8__IOZqlcNLexk-282" target="eWMClW8__IOZqlcNLexk-434">
          <mxGeometry width="50" height="50" relative="1" as="geometry">
            <mxPoint x="-2000" y="-2480" as="sourcePoint" />
            <mxPoint x="-1950" y="-2530" as="targetPoint" />
            <Array as="points">
              <mxPoint x="-2220" y="-2710" />
            </Array>
          </mxGeometry>
        </mxCell>
        <mxCell id="eWMClW8__IOZqlcNLexk-460" value="" style="edgeStyle=elbowEdgeStyle;elbow=horizontal;endArrow=classic;html=1;curved=0;rounded=0;endSize=8;startSize=8;exitX=1;exitY=0.5;exitDx=0;exitDy=0;entryX=0;entryY=0.5;entryDx=0;entryDy=0;" edge="1" parent="1" source="eWMClW8__IOZqlcNLexk-457" target="eWMClW8__IOZqlcNLexk-454">
          <mxGeometry width="50" height="50" relative="1" as="geometry">
            <mxPoint x="-2100" y="-2430" as="sourcePoint" />
            <mxPoint x="-2050" y="-2480" as="targetPoint" />
            <Array as="points">
              <mxPoint x="-2120" y="-2550" />
            </Array>
          </mxGeometry>
        </mxCell>
      </root>
    </mxGraphModel>
  </diagram>
</mxfile>
